<svg width="56" height="56" viewBox="0 0 56 56" fill="none" xmlns="http://www.w3.org/2000/svg">
<circle cx="28" cy="28" r="28" fill="#00BB67"/>
<path d="M40.0259 36.82H28.1133V20H38.9617C42.4631 20 44.364 22.1821 44.364 24.7645C44.364 25.9233 43.78 27.1078 42.884 28.0039C44.2044 28.7011 45.3365 30.2721 45.3365 31.9102C45.3365 34.7916 43.087 36.82 40.0259 36.82ZM32.2709 33.4364H39.4601C40.4673 33.4364 41.1305 32.6916 41.1305 31.7757V31.7489C41.1305 30.8334 40.4673 30.0883 39.4601 30.0883H32.2709V33.4364ZM32.2709 26.7046H38.4212C39.5098 26.7046 40.158 25.9598 40.158 25.044C40.158 24.1284 39.5501 23.3833 38.4212 23.3833H32.2709V26.7046Z" fill="white"/>
<path d="M20.8026 36.82H12V20H19.7383C23.2398 20 25.1406 22.1821 25.1406 24.7645C25.1406 25.9233 24.5567 27.1078 23.6607 28.0039C24.9811 28.7011 26.1131 30.2721 26.1131 31.9102C26.1131 34.7916 23.8636 36.82 20.8026 36.82ZM16.1573 33.4364H20.2367C21.244 33.4364 21.9072 32.6916 21.9072 31.7757V31.7489C21.9072 30.8334 21.244 30.0883 20.2367 30.0883H16.1573V33.4364ZM16.1573 26.7046H19.1978C20.2864 26.7046 20.9347 25.9598 20.9347 25.044C20.9347 24.1284 20.3268 23.3833 19.1978 23.3833H16.1573V26.7046Z" fill="white"/>
</svg>
