<svg width="36" height="36" viewBox="0 0 36 36" fill="none" xmlns="http://www.w3.org/2000/svg">
<mask id="mask0_1_9257" style="mask-type:alpha" maskUnits="userSpaceOnUse" x="3" y="3" width="30" height="30">
<path fill-rule="evenodd" clip-rule="evenodd" d="M6.99163 24.75C8.02164 29.4678 12.2233 33 17.25 33H20.25C26.049 33 30.75 28.299 30.75 22.5V18.75H15V9.75C15 14.3063 11.3063 18 6.75 18H6.375C4.51104 18 3 19.511 3 21.375C3 23.239 4.51104 24.75 6.375 24.75H6.99163Z" fill="url(#paint0_linear_1_9257)"/>
<path fill-rule="evenodd" clip-rule="evenodd" d="M6.75 3V18C11.3063 18 15 14.3063 15 9.75V18.75H33V12C33 7.02944 28.9706 3 24 3H15H6.75Z" fill="url(#paint1_linear_1_9257)"/>
</mask>
<g mask="url(#mask0_1_9257)">
<path d="M0 0H36V36H0V0Z" fill="#428BF9"/>
</g>
<defs>
<linearGradient id="paint0_linear_1_9257" x1="6.26471" y1="17.3755" x2="17.081" y2="32.856" gradientUnits="userSpaceOnUse">
<stop stop-opacity="0.38"/>
<stop offset="1" stop-opacity="0.5"/>
</linearGradient>
<linearGradient id="paint1_linear_1_9257" x1="6.75" y1="2.25" x2="27.7884" y2="18.8993" gradientUnits="userSpaceOnUse">
<stop stop-opacity="0.5"/>
<stop offset="1"/>
</linearGradient>
</defs>
</svg>
