<svg width="36" height="36" viewBox="0 0 36 36" fill="none" xmlns="http://www.w3.org/2000/svg">
<mask id="mask0_1_9262" style="mask-type:alpha" maskUnits="userSpaceOnUse" x="1" y="2" width="34" height="30">
<path d="M1.5 19.5001C1.5 18.264 2.91115 17.5585 3.9 18.3001L5.27431 19.3308C6.52973 20.2724 8.29866 20.0873 9.33204 18.9063L15.8884 11.4134C17.0312 10.1073 19.0403 10.0404 20.2675 11.2675L21.7326 12.7326C22.9597 13.9598 24.9688 13.8929 26.1116 12.5868L31.8711 6.00451C32.7832 4.96216 34.5 5.60722 34.5 6.99227V24.0001C34.5 28.1422 31.1421 31.5001 27 31.5001H1.5V19.5001Z" fill="url(#paint0_linear_1_9262)"/>
<path fill-rule="evenodd" clip-rule="evenodd" d="M2.7 15.8998C2.20557 15.529 1.5 15.8818 1.5 16.4998V22.4998L4.16146 24.4959C6.04459 25.9082 8.69799 25.6307 10.2481 23.8592L15.76 17.5598C16.949 16.2009 19.0603 16.1927 20.2599 17.5422L20.6101 17.9361C22.4095 19.9605 25.5765 19.9481 27.36 17.9098L34.5 9.7498V3.49589C34.5 2.80337 33.6416 2.48083 33.1856 3.00201L25.0558 12.2932C24.4844 12.9462 23.4798 12.9796 22.8663 12.3661L20.2675 9.76725C19.0403 8.54015 17.0312 8.60704 15.8884 9.91306L8.41602 18.4529C7.89933 19.0434 7.01486 19.136 6.38715 18.6652L2.7 15.8998Z" fill="black"/>
</mask>
<g mask="url(#mask0_1_9262)">
<path d="M0 0H36V36H0V0Z" fill="#428BF9"/>
</g>
<defs>
<linearGradient id="paint0_linear_1_9262" x1="1.5" y1="3.00012" x2="39.8004" y2="17.4811" gradientUnits="userSpaceOnUse">
<stop stop-opacity="0.5"/>
<stop offset="1" stop-opacity="0.3"/>
</linearGradient>
</defs>
</svg>
