<svg width="36" height="36" viewBox="0 0 36 36" fill="none" xmlns="http://www.w3.org/2000/svg">
<mask id="mask0_557_644579" style="mask-type:alpha" maskUnits="userSpaceOnUse" x="4" y="3" width="26" height="30">
<path fill-rule="evenodd" clip-rule="evenodd" d="M7.17116 3C6.48286 3 5.88346 3.46687 5.72364 4.13636C5.29033 5.95141 4.5 9.4112 4.5 10.5V13.4998C4.5 15.9851 6.51472 18 9 18V33C11.4853 33 13.5 30.9853 13.5 28.5V18C15.9853 18 18 15.9851 18 13.4998V10.5C18 9.4112 17.2097 5.95141 16.7764 4.13636C16.6165 3.46687 16.0171 3 15.3288 3H15V6.59167C15 8.09626 14.248 9.5013 12.9962 10.3359L12.75 10.5L12 3H10.5L10.0055 6.95636C9.84324 8.25406 9.12451 9.41699 8.03636 10.1424L7.5 10.5V3H7.17116Z" fill="black"/>
<path opacity="0.6" fill-rule="evenodd" clip-rule="evenodd" d="M25.7368 4.26316C22.7039 7.29611 21 11.4097 21 15.6989V21C21 21.8284 21.6716 22.5 22.5 22.5H24.75V33H25.5C27.9853 33 30 30.9853 30 28.5V22.5V16.3125V3H28.7864C27.6426 3 26.5456 3.45437 25.7368 4.26316Z" fill="black"/>
<path d="M21 15.6989C21 11.4097 22.7039 7.29611 25.7368 4.26316C26.5456 3.45437 27.6426 3 28.7864 3H30V16.5C30 19.8137 27.3137 22.5 24 22.5H21V15.6989Z" fill="black"/>
</mask>
<g mask="url(#mask0_557_644579)">
<path d="M0 0H36V36H0V0Z" fill="#A3E50F"/>
</g>
</svg>
