<svg width="36" height="36" viewBox="0 0 36 36" fill="none" xmlns="http://www.w3.org/2000/svg">
<mask id="mask0_44_200" style="mask-type:alpha" maskUnits="userSpaceOnUse" x="2" y="4" width="30" height="30">
<path opacity="0.6" fill-rule="evenodd" clip-rule="evenodd" d="M6.34805 8.49972C5.30047 8.20041 4.17296 8.49257 3.40256 9.26297L2.52943 10.1361L13.136 18.6214L19.5 12.2574L6.34805 8.49972ZM5.69478 21.5878C4.7112 21.3911 3.69438 21.6989 2.98511 22.4082L2.52942 22.8639L6.24173 25.5156L9.42371 22.3336L5.69478 21.5878Z" fill="black"/>
<path fill-rule="evenodd" clip-rule="evenodd" d="M26.6742 5.08305C27.4777 4.27955 28.6662 3.99898 29.7442 4.35832L30.1 4.4769C30.7719 4.70086 31.2991 5.22807 31.523 5.89993L31.6416 6.25568C32.0009 7.33369 31.7204 8.52219 30.9169 9.32569L23.7427 16.4999L27.5004 29.6518C27.7997 30.6993 27.5075 31.8268 26.7371 32.5972L25.864 33.4704L17.3787 22.8638L13.6664 26.5761L14.4122 30.305C14.6089 31.2886 14.301 32.3054 13.5918 33.0146L13.1361 33.4703L10.4845 29.7581L10.4844 29.7582L8.68128 27.3187L6.24176 25.5155L26.6742 5.08305Z" fill="black"/>
</mask>
<g mask="url(#mask0_44_200)">
<path d="M0 0H36V36H0V0Z" fill="#5C636B"/>
</g>
</svg>
