<svg width="36" height="34" viewBox="0 0 36 34" fill="none" xmlns="http://www.w3.org/2000/svg">
<path d="M17.8559 0.991943C15.816 0.991943 13.2816 2.25267 12.3371 3.13967L12.7084 3.98331C12.7084 3.98331 9.83238 4.02168 8.35 4.97584C6.86763 5.92999 6.1917 6.57889 5.46169 8.12001C4.73068 8.15482 1.98974 9.31825 0.402405 10.4879C0.402405 10.4879 -0.931825 15.5387 1.59516 17.7183L0 19.9083C0.402405 21.2872 2.1397 22.6883 3.86628 22.8553C4.64316 23.7969 3.13628 25.6672 3.13628 25.6672C3.7742 27.6919 8.06855 29.9174 10.6333 29.9174L10.2803 31.1095C10.2803 31.1095 13.137 33.1897 17.7471 32.9954C21.6442 33.1219 24.8138 32.1912 25.6181 31.1095L25.211 29.9174C28.7704 29.3869 31.4588 28.2265 32.9547 25.763C32.9547 25.763 31.8408 23.4212 32.2296 22.8337C33.9562 22.6667 35.5707 20.9661 36 20.2235L34.4338 17.7583C35.6829 16.3554 36.382 12.6538 35.4639 10.4879C33.8765 9.31825 31.1625 8.36715 30.4315 8.33234C30.1414 6.62117 28.2794 5.28337 28.2794 5.28337C26.5161 3.74989 23.3089 3.98331 23.3089 3.98331L23.5696 3.13967C22.7519 2.22821 20.1703 0.991943 17.8559 0.991943Z" fill="white"/>
<path d="M13.098 5.78171C11.057 5.26189 9.51833 5.97331 8.18708 6.95216C6.8531 7.93303 6.32669 9.2045 6.44374 9.6597C5.35288 9.21306 2.95782 10.5981 1.81775 11.2625C1.81775 11.2625 0.935507 15.578 3.19085 17.2479C3.0736 18.4203 2.24667 19.8274 1.81775 20.0909C2.56121 21.2632 4.13657 21.5842 4.80377 21.2864C5.91896 22.8305 5.38011 24.9226 4.76056 25.5899C6.4938 27.1548 10.6293 27.8111 11.8406 27.9091C11.8406 27.9091 10.7743 25.4101 10.2982 23.3509C8.98248 17.6598 9.69067 10.5584 9.69067 10.5584C9.69067 10.5584 6.61723 14.1363 8.33042 22.7616C8.6197 24.218 9.02851 25.7575 9.02851 25.7575C8.74343 25.6162 8.04782 25.7019 6.76874 25.0548C7.31667 24.4647 7.08103 20.9648 5.46675 19.2476C5.46675 19.2476 4.69867 19.602 4.13484 19.3673C4.51418 19.1342 4.98786 17.647 4.98786 16.5089C3.1625 15.4179 3.35615 13.4455 3.44643 12.4084C4.34214 11.8268 5.94853 10.8382 7.96974 11.7013C7.91663 11.2118 8.0549 9.90879 8.60948 8.99629C8.60948 8.99629 9.28458 7.82172 10.8094 7.45323C12.3342 7.08474 13.098 5.78171 13.098 5.78171Z" fill="#333333"/>
<path d="M22.8986 5.78171C24.9397 5.26189 26.4783 5.97331 27.8096 6.95216C29.1435 7.93303 29.67 9.2045 29.5529 9.6597C30.6438 9.21306 33.0388 10.5981 34.1789 11.2625C34.1789 11.2625 35.0611 15.578 32.8058 17.2479C32.923 18.4203 33.75 19.8274 34.1789 20.0909C33.4354 21.2632 31.8601 21.5842 31.1929 21.2864C30.0777 22.8305 30.6165 24.9226 31.2361 25.5899C29.5028 27.1548 25.3674 27.8111 24.1561 27.9091C24.1561 27.9091 25.2223 25.4101 25.6984 23.3509C27.0142 17.6598 26.306 10.5584 26.306 10.5584C26.306 10.5584 29.3794 14.1363 27.6662 22.7616C27.3769 24.218 26.9681 25.7575 26.9681 25.7575C27.2532 25.6162 27.9488 25.7019 29.2279 25.0548C28.68 24.4647 28.9156 20.9648 30.5299 19.2476C30.5299 19.2476 31.298 19.602 31.8618 19.3673C31.4825 19.1342 31.0088 17.647 31.0088 16.5089C32.8341 15.4179 32.6405 13.4455 32.5502 12.4084C31.6545 11.8268 30.0481 10.8382 28.0269 11.7013C28.08 11.2118 27.9417 9.90879 27.3872 8.99629C27.3872 8.99629 26.7121 7.82172 25.1873 7.45323C23.6625 7.08474 22.8986 5.78171 22.8986 5.78171Z" fill="#333333"/>
<path fill-rule="evenodd" clip-rule="evenodd" d="M18.1646 9.10656C16.695 9.10128 14.7543 9.49241 14.7543 9.49241L14.1713 3.68819L18.0944 2.50244L21.8246 3.68819L21.5052 9.49241C21.5052 9.49241 19.61 9.11176 18.1646 9.10656ZM18.1646 7.45203C17.3498 7.4306 16.301 7.57757 16.301 7.57757L16.0612 4.82758L18.0944 4.27621L20.1126 4.82758V7.57757C20.1126 7.57757 18.9964 7.4739 18.1646 7.45203Z" fill="#333333"/>
<path fill-rule="evenodd" clip-rule="evenodd" d="M17.9778 31.1633C21.3737 31.1237 23.5475 30.112 23.5475 30.112L22.22 25.9412C22.22 25.9412 19.3706 26.7669 17.9981 26.7682C16.6256 26.7669 13.8215 25.9412 13.8215 25.9412L12.4487 30.112C12.4487 30.112 14.5819 31.1237 17.9778 31.1633ZM17.9981 29.7715C19.9316 29.7637 21.1263 29.3669 21.7746 29.1041L21.4196 27.6745C20.6193 27.9374 19.2308 28.2277 17.9981 28.238C16.7654 28.2277 15.3684 28.0112 14.5681 27.7483L14.259 29.1041C14.9072 29.3669 16.0646 29.7637 17.9981 29.7715Z" fill="#333333"/>
<path fill-rule="evenodd" clip-rule="evenodd" d="M24.8726 11.3206H11.1243C11.2309 11.4691 11.6642 12.1905 11.8192 12.6067C11.9747 13.0243 12.0891 13.4455 12.0944 13.7051C12.0985 13.9106 12.1235 14.5487 12.1562 15.3828L12.1566 15.3909C12.2214 17.045 12.3168 19.4765 12.3436 20.9129C12.3555 21.5465 12.4962 22.3866 13.0046 23.0735C13.5221 23.7728 14.3962 24.2806 15.8015 24.2806H16.7899C16.8874 24.2806 16.9546 24.3057 17.0078 24.3423C17.0646 24.3813 17.1171 24.4414 17.1697 24.5274C17.2229 24.6143 17.2782 24.7357 17.3297 24.8511C17.3766 24.9562 17.429 25.0738 17.491 25.1804C17.512 25.2086 17.597 25.3222 17.6764 25.3729C17.7612 25.4271 17.8673 25.4589 17.9985 25.4589C18.1322 25.4589 18.2397 25.4258 18.325 25.3733C18.4053 25.3238 18.4857 25.2083 18.5084 25.1804C18.5724 25.0702 18.6365 24.9488 18.6834 24.8412C18.7338 24.7253 18.7838 24.612 18.8356 24.525C18.8867 24.4392 18.9375 24.3798 18.9925 24.3415C19.0438 24.3057 19.1096 24.2806 19.207 24.2806H20.1954C21.6007 24.2806 22.4748 23.7729 22.9923 23.0735C23.5006 22.3866 23.6414 21.5465 23.6532 20.9129C23.6801 19.4766 23.7754 17.0452 23.8403 15.3912L23.8406 15.3835C23.8733 14.5492 23.8984 13.9107 23.9025 13.7051C23.9078 13.4455 24.0222 13.0243 24.1777 12.6067C24.3327 12.1905 24.766 11.4691 24.8726 11.3206ZM13.741 13.2673C13.7246 13.179 13.7068 13.0929 13.6884 13.0149H22.3472C22.3229 13.101 22.3058 13.1875 22.2933 13.2687C22.2625 13.4698 22.2569 13.7932 22.2569 13.7932C22.1896 15.4851 22.0543 19.0085 22.0543 20.7612C22.0543 21.4843 21.821 21.9518 21.5127 22.2366C21.2007 22.5249 20.7888 22.6473 20.3972 22.6349C20.3451 22.6332 20.2406 22.6315 20.1292 22.6296C19.98 22.6272 19.8184 22.6245 19.7536 22.6215C19.3597 22.6035 18.977 22.6212 18.6441 22.7127C18.4026 22.7791 18.181 22.8863 18.0016 23.0512C17.5818 22.6367 16.9047 22.454 16.2117 22.4856C16.147 22.4886 15.969 22.4912 15.8038 22.4936C15.6764 22.4955 15.5566 22.4973 15.5024 22.499C14.7661 22.5223 14.0208 21.9127 14.0208 20.7612C14.0208 18.8468 13.8965 15.633 13.8327 13.9838C13.8327 13.9838 13.7867 13.5138 13.741 13.2673Z" fill="#333333"/>
<path d="M13.6689 13.0149C13.6874 13.0929 13.7051 13.179 13.7215 13.2673C13.7672 13.5139 13.8132 13.9839 13.8132 13.9839C13.877 15.6331 14.0014 18.8468 14.0014 20.7613C14.0014 21.9127 14.7466 22.5223 15.4829 22.499C15.5371 22.4973 15.6569 22.4955 15.7843 22.4937C15.9495 22.4912 16.1275 22.4886 16.1922 22.4857C16.8852 22.454 17.5623 22.6367 17.9821 23.0512C18.1615 22.8863 18.3831 22.7791 18.6246 22.7127C18.9575 22.6213 19.3402 22.6036 19.7341 22.6216C19.799 22.6245 19.9605 22.6272 20.1097 22.6297C20.2211 22.6315 20.3256 22.6333 20.3777 22.6349C20.7693 22.6473 21.1812 22.5249 21.4933 22.2366C21.8015 21.9518 22.0348 21.4843 22.0348 20.7613C22.0348 19.0086 22.1701 15.4852 22.2374 13.7932C22.2374 13.7932 22.243 13.4698 22.2738 13.2687C22.2863 13.1875 22.3034 13.1011 22.3277 13.0149H13.6689Z" fill="#FFDD2D"/>
<path fill-rule="evenodd" clip-rule="evenodd" d="M17.339 15.7419H18.956V20.11H17.339V20.1098H16.9745C17.1922 19.8501 17.339 19.3776 17.339 18.8377V17.0349H15.6322V15.742H17.339V15.7419ZM18.9563 20.1111V18.839C18.9563 19.3789 19.1031 19.8514 19.3208 20.1111H18.9563ZM15.6321 17.035H16.8005C16.3045 17.035 15.8707 17.2173 15.6321 17.4867V17.035ZM20.6634 15.7419H18.9561V17.0349H20.6634V15.7419ZM20.6634 17.035H19.4951C19.991 17.035 20.4248 17.2173 20.6634 17.4867V17.035Z" fill="#333333"/>
</svg>
